# MagicaVoxel @ Ephtracy

# group
o 

# material
mtllib Box.mtl
usemtl palette

# normals
vn -1 0 0
vn 1 0 0
vn 0 0 1
vn 0 0 -1
vn 0 -1 0
vn 0 1 0

# texcoords
vt 0.958984 0.5
vt 0.982422 0.5

# verts
v -2 0 2
v -2 0 1.2
v -2 0 -1.2
v -2 0 -2
v -2 3.9 2
v -2 3.9 1.5
v -2 3.9 -1.5
v -2 3.9 -2
v -2 4 2
v -2 4 1.5
v -2 4 1.2
v -2 4 -1.2
v -2 4 -1.5
v -2 4 -2
v -1.9 0 1.2
v -1.9 0 -1.2
v -1.9 4 1.2
v -1.9 4 -1.2
v -1.2 3.9 0.7
v -1.2 3.9 0.6
v -1.2 4 0.7
v -1.2 4 0.6
v -1.1 3.9 0.8
v -1.1 3.9 0.7
v -1.1 4 0.8
v -1.1 4 0.7
v -1 3.9 0.9
v -1 3.9 0.8
v -1 4 0.9
v -1 4 0.8
v -0.9 3.9 1
v -0.9 3.9 0.9
v -0.9 4 1
v -0.9 4 0.9
v -0.8 3.9 1.1
v -0.8 3.9 1
v -0.8 4 1.1
v -0.8 4 1
v -0.7 3.9 1.2
v -0.7 3.9 1.1
v -0.7 4 1.2
v -0.7 4 1.1
v -0.6 3.9 1.3
v -0.6 3.9 1.2
v -0.6 4 1.3
v -0.6 4 1.2
v -0.5 3.9 1.4
v -0.5 3.9 1.3
v -0.5 4 1.4
v -0.5 4 1.3
v -0.4 3.9 1.5
v -0.4 3.9 1.4
v -0.4 4 1.5
v -0.4 4 1.4
v -0.3 3.9 1.6
v -0.3 3.9 1.5
v -0.3 4 1.6
v -0.3 4 1.5
v -0.2 3.8 2
v -0.2 3.8 1.9
v -0.2 3.9 2
v -0.2 3.9 1.9
v 0.2 3.9 1.6
v 0.2 3.9 -1.9
v 0.2 4 1.6
v 0.2 4 -1.9
v 0.4 3.9 1.9
v 0.4 3.9 1.8
v 0.4 4 1.9
v 0.4 4 1.8
v 0.5 3.9 1.8
v 0.5 3.9 1.7
v 0.5 4 1.8
v 0.5 4 1.7
v 0.6 3.9 1.7
v 0.6 3.9 1.6
v 0.6 4 1.7
v 0.6 4 1.6
v 0.7 3.9 1.6
v 0.7 3.9 1.5
v 0.7 4 1.6
v 0.7 4 1.5
v 0.8 3.9 1.5
v 0.8 3.9 1.4
v 0.8 4 1.5
v 0.8 4 1.4
v 0.9 3.9 1.4
v 0.9 3.9 1.3
v 0.9 4 1.4
v 0.9 4 1.3
v 1 3.9 1.3
v 1 3.9 1.2
v 1 4 1.3
v 1 4 1.2
v 1.1 3.9 1.2
v 1.1 3.9 1.1
v 1.1 4 1.2
v 1.1 4 1.1
v 1.2 0 2
v 1.2 0 1.9
v 1.2 0 -1.9
v 1.2 0 -2
v 1.2 3.9 1.1
v 1.2 3.9 1
v 1.2 4 2
v 1.2 4 1.9
v 1.2 4 1.1
v 1.2 4 1
v 1.2 4 -1.9
v 1.2 4 -2
v 1.3 3.9 1
v 1.3 3.9 0.6
v 1.3 4 1
v 1.3 4 0.6
v -1.3 3.9 1
v -1.3 3.9 0.6
v -1.3 4 1
v -1.3 4 0.6
v -1.2 0 2
v -1.2 0 1.9
v -1.2 0 -1.9
v -1.2 0 -2
v -1.2 3.9 1.1
v -1.2 3.9 1
v -1.2 4 2
v -1.2 4 1.9
v -1.2 4 1.1
v -1.2 4 1
v -1.2 4 -1.9
v -1.2 4 -2
v -1.1 3.9 1.2
v -1.1 3.9 1.1
v -1.1 4 1.2
v -1.1 4 1.1
v -1 3.9 1.3
v -1 3.9 1.2
v -1 4 1.3
v -1 4 1.2
v -0.9 3.9 1.4
v -0.9 3.9 1.3
v -0.9 4 1.4
v -0.9 4 1.3
v -0.8 3.9 1.5
v -0.8 3.9 1.4
v -0.8 4 1.5
v -0.8 4 1.4
v -0.7 3.9 1.6
v -0.7 3.9 1.5
v -0.7 4 1.6
v -0.7 4 1.5
v -0.6 3.9 1.7
v -0.6 3.9 1.6
v -0.6 4 1.7
v -0.6 4 1.6
v -0.5 3.9 1.8
v -0.5 3.9 1.7
v -0.5 4 1.8
v -0.5 4 1.7
v -0.4 3.9 1.9
v -0.4 3.9 1.8
v -0.4 4 1.9
v -0.4 4 1.8
v -0.2 3.9 1.6
v -0.2 3.9 -1.9
v -0.2 4 1.6
v -0.2 4 -1.9
v 0.2 3.8 2
v 0.2 3.8 1.9
v 0.2 3.9 2
v 0.2 3.9 1.9
v 0.3 3.9 1.6
v 0.3 3.9 1.5
v 0.3 4 1.6
v 0.3 4 1.5
v 0.4 3.9 1.5
v 0.4 3.9 1.4
v 0.4 4 1.5
v 0.4 4 1.4
v 0.5 3.9 1.4
v 0.5 3.9 1.3
v 0.5 4 1.4
v 0.5 4 1.3
v 0.6 3.9 1.3
v 0.6 3.9 1.2
v 0.6 4 1.3
v 0.6 4 1.2
v 0.7 3.9 1.2
v 0.7 3.9 1.1
v 0.7 4 1.2
v 0.7 4 1.1
v 0.8 3.9 1.1
v 0.8 3.9 1
v 0.8 4 1.1
v 0.8 4 1
v 0.9 3.9 1
v 0.9 3.9 0.9
v 0.9 4 1
v 0.9 4 0.9
v 1 3.9 0.9
v 1 3.9 0.8
v 1 4 0.9
v 1 4 0.8
v 1.1 3.9 0.8
v 1.1 3.9 0.7
v 1.1 4 0.8
v 1.1 4 0.7
v 1.2 3.9 0.7
v 1.2 3.9 0.6
v 1.2 4 0.7
v 1.2 4 0.6
v 1.9 0 1.2
v 1.9 0 -1.2
v 1.9 4 1.2
v 1.9 4 -1.2
v 2 0 2
v 2 0 1.2
v 2 0 -1.2
v 2 0 -2
v 2 3.9 2
v 2 3.9 1.5
v 2 3.9 -1.5
v 2 3.9 -2
v 2 4 2
v 2 4 1.5
v 2 4 1.2
v 2 4 -1.2
v 2 4 -1.5
v 2 4 -2
v -2 0 2
v -2 3.9 2
v -2 4 2
v -1.5 3.9 2
v -1.5 4 2
v -1.2 0 2
v -1.2 4 2
v -0.2 3.8 2
v -0.2 3.9 2
v 0.2 3.8 2
v 0.2 3.9 2
v 1.2 0 2
v 1.2 4 2
v 1.5 3.9 2
v 1.5 4 2
v 2 0 2
v 2 3.9 2
v 2 4 2
v -1.2 0 1.9
v -1.2 4 1.9
v -0.4 3.8 1.9
v -0.4 3.9 1.9
v -0.4 4 1.9
v -0.2 3.8 1.9
v -0.2 3.9 1.9
v 0.2 3.8 1.9
v 0.2 3.9 1.9
v 0.4 3.8 1.9
v 0.4 3.9 1.9
v 0.4 4 1.9
v 1.2 0 1.9
v 1.2 4 1.9
v -0.3 3.9 1.6
v -0.3 4 1.6
v -0.2 3.9 1.6
v -0.2 4 1.6
v 0.2 3.9 1.6
v 0.2 4 1.6
v 0.3 3.9 1.6
v 0.3 4 1.6
v -0.4 3.9 1.5
v -0.4 4 1.5
v -0.3 3.9 1.5
v -0.3 4 1.5
v 0.3 3.9 1.5
v 0.3 4 1.5
v 0.4 3.9 1.5
v 0.4 4 1.5
v -0.5 3.9 1.4
v -0.5 4 1.4
v -0.4 3.9 1.4
v -0.4 4 1.4
v 0.4 3.9 1.4
v 0.4 4 1.4
v 0.5 3.9 1.4
v 0.5 4 1.4
v -0.6 3.9 1.3
v -0.6 4 1.3
v -0.5 3.9 1.3
v -0.5 4 1.3
v 0.5 3.9 1.3
v 0.5 4 1.3
v 0.6 3.9 1.3
v 0.6 4 1.3
v -0.7 3.9 1.2
v -0.7 4 1.2
v -0.6 3.9 1.2
v -0.6 4 1.2
v 0.6 3.9 1.2
v 0.6 4 1.2
v 0.7 3.9 1.2
v 0.7 4 1.2
v -0.8 3.9 1.1
v -0.8 4 1.1
v -0.7 3.9 1.1
v -0.7 4 1.1
v 0.7 3.9 1.1
v 0.7 4 1.1
v 0.8 3.9 1.1
v 0.8 4 1.1
v -0.9 3.9 1
v -0.9 4 1
v -0.8 3.9 1
v -0.8 4 1
v 0.8 3.9 1
v 0.8 4 1
v 0.9 3.9 1
v 0.9 4 1
v -1 3.9 0.9
v -1 4 0.9
v -0.9 3.9 0.9
v -0.9 4 0.9
v 0.9 3.9 0.9
v 0.9 4 0.9
v 1 3.9 0.9
v 1 4 0.9
v -1.1 3.9 0.8
v -1.1 4 0.8
v -1 3.9 0.8
v -1 4 0.8
v 1 3.9 0.8
v 1 4 0.8
v 1.1 3.9 0.8
v 1.1 4 0.8
v -1.2 3.9 0.7
v -1.2 4 0.7
v -1.1 3.9 0.7
v -1.1 4 0.7
v 1.1 3.9 0.7
v 1.1 4 0.7
v 1.2 3.9 0.7
v 1.2 4 0.7
v -1.3 3.9 0.6
v -1.3 4 0.6
v -1.2 3.9 0.6
v -1.2 4 0.6
v 1.2 3.9 0.6
v 1.2 4 0.6
v 1.3 3.9 0.6
v 1.3 4 0.6
v -2 0 -1.2
v -2 4 -1.2
v -1.9 0 -1.2
v -1.9 4 -1.2
v 1.9 0 -1.2
v 1.9 4 -1.2
v 2 0 -1.2
v 2 4 -1.2
v -0.5 3.9 1.8
v -0.5 4 1.8
v -0.4 3.9 1.8
v -0.4 4 1.8
v 0.4 3.9 1.8
v 0.4 4 1.8
v 0.5 3.9 1.8
v 0.5 4 1.8
v -0.6 3.9 1.7
v -0.6 4 1.7
v -0.5 3.9 1.7
v -0.5 4 1.7
v 0.5 3.9 1.7
v 0.5 4 1.7
v 0.6 3.9 1.7
v 0.6 4 1.7
v -0.7 3.9 1.6
v -0.7 4 1.6
v -0.6 3.9 1.6
v -0.6 4 1.6
v 0.6 3.9 1.6
v 0.6 4 1.6
v 0.7 3.9 1.6
v 0.7 4 1.6
v -0.8 3.9 1.5
v -0.8 4 1.5
v -0.7 3.9 1.5
v -0.7 4 1.5
v 0.7 3.9 1.5
v 0.7 4 1.5
v 0.8 3.9 1.5
v 0.8 4 1.5
v -0.9 3.9 1.4
v -0.9 4 1.4
v -0.8 3.9 1.4
v -0.8 4 1.4
v 0.8 3.9 1.4
v 0.8 4 1.4
v 0.9 3.9 1.4
v 0.9 4 1.4
v -1 3.9 1.3
v -1 4 1.3
v -0.9 3.9 1.3
v -0.9 4 1.3
v 0.9 3.9 1.3
v 0.9 4 1.3
v 1 3.9 1.3
v 1 4 1.3
v -2 0 1.2
v -2 4 1.2
v -1.9 0 1.2
v -1.9 4 1.2
v -1.1 3.9 1.2
v -1.1 4 1.2
v -1 3.9 1.2
v -1 4 1.2
v 1 3.9 1.2
v 1 4 1.2
v 1.1 3.9 1.2
v 1.1 4 1.2
v 1.9 0 1.2
v 1.9 4 1.2
v 2 0 1.2
v 2 4 1.2
v -1.2 3.9 1.1
v -1.2 4 1.1
v -1.1 3.9 1.1
v -1.1 4 1.1
v 1.1 3.9 1.1
v 1.1 4 1.1
v 1.2 3.9 1.1
v 1.2 4 1.1
v -1.3 3.9 1
v -1.3 4 1
v -1.2 3.9 1
v -1.2 4 1
v 1.2 3.9 1
v 1.2 4 1
v 1.3 3.9 1
v 1.3 4 1
v -1.2 0 -1.9
v -1.2 4 -1.9
v -0.2 3.8 -1.9
v -0.2 3.9 -1.9
v -0.2 4 -1.9
v 0.2 3.8 -1.9
v 0.2 3.9 -1.9
v 0.2 4 -1.9
v 1.2 0 -1.9
v 1.2 4 -1.9
v -2 0 -2
v -2 3.9 -2
v -2 4 -2
v -1.5 3.9 -2
v -1.5 4 -2
v -1.2 0 -2
v -1.2 4 -2
v 1.2 0 -2
v 1.2 4 -2
v 1.5 3.9 -2
v 1.5 4 -2
v 2 0 -2
v 2 3.9 -2
v 2 4 -2
v -2 0 2
v -1.2 0 2
v 1.2 0 2
v 2 0 2
v -1.2 0 1.9
v 1.2 0 1.9
v -2 0 1.2
v -1.9 0 1.2
v 1.9 0 1.2
v 2 0 1.2
v -2 0 -1.2
v -1.9 0 -1.2
v 1.9 0 -1.2
v 2 0 -1.2
v -1.2 0 -1.9
v 1.2 0 -1.9
v -2 0 -2
v -1.2 0 -2
v 1.2 0 -2
v 2 0 -2
v -0.2 3.8 2
v 0.2 3.8 2
v -0.2 3.8 1.9
v 0.2 3.8 1.9
v -0.2 3.9 2
v 0.2 3.9 2
v -0.4 3.9 1.9
v -0.2 3.9 1.9
v 0.2 3.9 1.9
v 0.4 3.9 1.9
v -0.5 3.9 1.8
v -0.4 3.9 1.8
v 0.4 3.9 1.8
v 0.5 3.9 1.8
v -0.6 3.9 1.7
v -0.5 3.9 1.7
v 0.5 3.9 1.7
v 0.6 3.9 1.7
v -0.7 3.9 1.6
v -0.6 3.9 1.6
v -0.3 3.9 1.6
v -0.2 3.9 1.6
v 0.2 3.9 1.6
v 0.3 3.9 1.6
v 0.6 3.9 1.6
v 0.7 3.9 1.6
v -0.8 3.9 1.5
v -0.7 3.9 1.5
v -0.4 3.9 1.5
v -0.3 3.9 1.5
v 0.3 3.9 1.5
v 0.4 3.9 1.5
v 0.7 3.9 1.5
v 0.8 3.9 1.5
v -0.9 3.9 1.4
v -0.8 3.9 1.4
v -0.5 3.9 1.4
v -0.4 3.9 1.4
v 0.4 3.9 1.4
v 0.5 3.9 1.4
v 0.8 3.9 1.4
v 0.9 3.9 1.4
v -1 3.9 1.3
v -0.9 3.9 1.3
v -0.6 3.9 1.3
v -0.5 3.9 1.3
v 0.5 3.9 1.3
v 0.6 3.9 1.3
v 0.9 3.9 1.3
v 1 3.9 1.3
v -1.1 3.9 1.2
v -1 3.9 1.2
v -0.7 3.9 1.2
v -0.6 3.9 1.2
v 0.6 3.9 1.2
v 0.7 3.9 1.2
v 1 3.9 1.2
v 1.1 3.9 1.2
v -1.2 3.9 1.1
v -1.1 3.9 1.1
v -0.8 3.9 1.1
v -0.7 3.9 1.1
v 0.7 3.9 1.1
v 0.8 3.9 1.1
v 1.1 3.9 1.1
v 1.2 3.9 1.1
v -1.3 3.9 1
v -1.2 3.9 1
v -0.9 3.9 1
v -0.8 3.9 1
v 0.8 3.9 1
v 0.9 3.9 1
v 1.2 3.9 1
v 1.3 3.9 1
v -1 3.9 0.9
v -0.9 3.9 0.9
v 0.9 3.9 0.9
v 1 3.9 0.9
v -1.1 3.9 0.8
v -1 3.9 0.8
v 1 3.9 0.8
v 1.1 3.9 0.8
v -1.2 3.9 0.7
v -1.1 3.9 0.7
v 1.1 3.9 0.7
v 1.2 3.9 0.7
v -1.3 3.9 0.6
v -1.2 3.9 0.6
v 1.2 3.9 0.6
v 1.3 3.9 0.6
v -0.2 3.9 -1.9
v 0.2 3.9 -1.9
v -2 4 2
v -1.5 4 2
v -1.2 4 2
v 1.2 4 2
v 1.5 4 2
v 2 4 2
v -1.8 4 1.9
v -1.5 4 1.9
v -1.2 4 1.9
v -0.4 4 1.9
v 0.4 4 1.9
v 1.2 4 1.9
v 1.5 4 1.9
v 1.8 4 1.9
v -1.9 4 1.8
v -1.8 4 1.8
v -0.5 4 1.8
v -0.4 4 1.8
v 0.4 4 1.8
v 0.5 4 1.8
v 1.8 4 1.8
v 1.9 4 1.8
v -0.6 4 1.7
v -0.5 4 1.7
v 0.5 4 1.7
v 0.6 4 1.7
v -0.7 4 1.6
v -0.6 4 1.6
v -0.3 4 1.6
v -0.2 4 1.6
v 0.2 4 1.6
v 0.3 4 1.6
v 0.6 4 1.6
v 0.7 4 1.6
v -2 4 1.5
v -1.9 4 1.5
v -0.8 4 1.5
v -0.7 4 1.5
v -0.4 4 1.5
v -0.3 4 1.5
v 0.3 4 1.5
v 0.4 4 1.5
v 0.7 4 1.5
v 0.8 4 1.5
v 1.9 4 1.5
v 2 4 1.5
v -0.9 4 1.4
v -0.8 4 1.4
v -0.5 4 1.4
v -0.4 4 1.4
v 0.4 4 1.4
v 0.5 4 1.4
v 0.8 4 1.4
v 0.9 4 1.4
v -1 4 1.3
v -0.9 4 1.3
v -0.6 4 1.3
v -0.5 4 1.3
v 0.5 4 1.3
v 0.6 4 1.3
v 0.9 4 1.3
v 1 4 1.3
v -2 4 1.2
v -1.9 4 1.2
v -1.1 4 1.2
v -1 4 1.2
v -0.7 4 1.2
v -0.6 4 1.2
v 0.6 4 1.2
v 0.7 4 1.2
v 1 4 1.2
v 1.1 4 1.2
v 1.9 4 1.2
v 2 4 1.2
v -1.2 4 1.1
v -1.1 4 1.1
v -0.8 4 1.1
v -0.7 4 1.1
v 0.7 4 1.1
v 0.8 4 1.1
v 1.1 4 1.1
v 1.2 4 1.1
v -1.3 4 1
v -1.2 4 1
v -0.9 4 1
v -0.8 4 1
v 0.8 4 1
v 0.9 4 1
v 1.2 4 1
v 1.3 4 1
v -1 4 0.9
v -0.9 4 0.9
v 0.9 4 0.9
v 1 4 0.9
v -1.1 4 0.8
v -1 4 0.8
v 1 4 0.8
v 1.1 4 0.8
v -1.2 4 0.7
v -1.1 4 0.7
v 1.1 4 0.7
v 1.2 4 0.7
v -1.3 4 0.6
v -1.2 4 0.6
v 1.2 4 0.6
v 1.3 4 0.6
v -2 4 -1.2
v -1.9 4 -1.2
v 1.9 4 -1.2
v 2 4 -1.2
v -2 4 -1.5
v -1.9 4 -1.5
v 1.9 4 -1.5
v 2 4 -1.5
v -1.9 4 -1.8
v -1.8 4 -1.8
v 1.8 4 -1.8
v 1.9 4 -1.8
v -1.8 4 -1.9
v -1.5 4 -1.9
v -1.2 4 -1.9
v -0.2 4 -1.9
v 0.2 4 -1.9
v 1.2 4 -1.9
v 1.5 4 -1.9
v 1.8 4 -1.9
v -2 4 -2
v -1.5 4 -2
v -1.2 4 -2
v 1.2 4 -2
v 1.5 4 -2
v 2 4 -2

# faces
f 5/2/1 2/2/1 1/2/1
f 6/2/1 2/2/1 5/2/1
f 7/2/1 4/2/1 3/2/1
f 8/2/1 4/2/1 7/2/1
f 9/1/1 6/1/1 5/1/1
f 10/2/1 2/2/1 6/2/1
f 10/1/1 6/1/1 9/1/1
f 11/2/1 2/2/1 10/2/1
f 12/2/1 7/2/1 3/2/1
f 13/1/1 8/1/1 7/1/1
f 13/2/1 7/2/1 12/2/1
f 14/1/1 8/1/1 13/1/1
f 17/2/1 16/2/1 15/2/1
f 18/2/1 16/2/1 17/2/1
f 21/2/1 20/2/1 19/2/1
f 22/2/1 20/2/1 21/2/1
f 25/2/1 24/2/1 23/2/1
f 26/2/1 24/2/1 25/2/1
f 29/2/1 28/2/1 27/2/1
f 30/2/1 28/2/1 29/2/1
f 33/2/1 32/2/1 31/2/1
f 34/2/1 32/2/1 33/2/1
f 37/2/1 36/2/1 35/2/1
f 38/2/1 36/2/1 37/2/1
f 41/2/1 40/2/1 39/2/1
f 42/2/1 40/2/1 41/2/1
f 45/2/1 44/2/1 43/2/1
f 46/2/1 44/2/1 45/2/1
f 49/2/1 48/2/1 47/2/1
f 50/2/1 48/2/1 49/2/1
f 53/2/1 52/2/1 51/2/1
f 54/2/1 52/2/1 53/2/1
f 57/2/1 56/2/1 55/2/1
f 58/2/1 56/2/1 57/2/1
f 61/1/1 60/1/1 59/1/1
f 62/1/1 60/1/1 61/1/1
f 65/2/1 64/2/1 63/2/1
f 66/2/1 64/2/1 65/2/1
f 69/2/1 68/2/1 67/2/1
f 70/2/1 68/2/1 69/2/1
f 73/2/1 72/2/1 71/2/1
f 74/2/1 72/2/1 73/2/1
f 77/2/1 76/2/1 75/2/1
f 78/2/1 76/2/1 77/2/1
f 81/2/1 80/2/1 79/2/1
f 82/2/1 80/2/1 81/2/1
f 85/2/1 84/2/1 83/2/1
f 86/2/1 84/2/1 85/2/1
f 89/2/1 88/2/1 87/2/1
f 90/2/1 88/2/1 89/2/1
f 93/2/1 92/2/1 91/2/1
f 94/2/1 92/2/1 93/2/1
f 97/2/1 96/2/1 95/2/1
f 98/2/1 96/2/1 97/2/1
f 105/2/1 100/2/1 99/2/1
f 106/2/1 100/2/1 105/2/1
f 107/2/1 104/2/1 103/2/1
f 108/2/1 104/2/1 107/2/1
f 109/2/1 102/2/1 101/2/1
f 110/2/1 102/2/1 109/2/1
f 113/2/1 112/2/1 111/2/1
f 114/2/1 112/2/1 113/2/1
f 115/2/2 116/2/2 117/2/2
f 117/2/2 116/2/2 118/2/2
f 119/2/2 120/2/2 125/2/2
f 125/2/2 120/2/2 126/2/2
f 123/2/2 124/2/2 127/2/2
f 127/2/2 124/2/2 128/2/2
f 121/2/2 122/2/2 129/2/2
f 129/2/2 122/2/2 130/2/2
f 131/2/2 132/2/2 133/2/2
f 133/2/2 132/2/2 134/2/2
f 135/2/2 136/2/2 137/2/2
f 137/2/2 136/2/2 138/2/2
f 139/2/2 140/2/2 141/2/2
f 141/2/2 140/2/2 142/2/2
f 143/2/2 144/2/2 145/2/2
f 145/2/2 144/2/2 146/2/2
f 147/2/2 148/2/2 149/2/2
f 149/2/2 148/2/2 150/2/2
f 151/2/2 152/2/2 153/2/2
f 153/2/2 152/2/2 154/2/2
f 155/2/2 156/2/2 157/2/2
f 157/2/2 156/2/2 158/2/2
f 159/2/2 160/2/2 161/2/2
f 161/2/2 160/2/2 162/2/2
f 163/2/2 164/2/2 165/2/2
f 165/2/2 164/2/2 166/2/2
f 167/1/2 168/1/2 169/1/2
f 169/1/2 168/1/2 170/1/2
f 171/2/2 172/2/2 173/2/2
f 173/2/2 172/2/2 174/2/2
f 175/2/2 176/2/2 177/2/2
f 177/2/2 176/2/2 178/2/2
f 179/2/2 180/2/2 181/2/2
f 181/2/2 180/2/2 182/2/2
f 183/2/2 184/2/2 185/2/2
f 185/2/2 184/2/2 186/2/2
f 187/2/2 188/2/2 189/2/2
f 189/2/2 188/2/2 190/2/2
f 191/2/2 192/2/2 193/2/2
f 193/2/2 192/2/2 194/2/2
f 195/2/2 196/2/2 197/2/2
f 197/2/2 196/2/2 198/2/2
f 199/2/2 200/2/2 201/2/2
f 201/2/2 200/2/2 202/2/2
f 203/2/2 204/2/2 205/2/2
f 205/2/2 204/2/2 206/2/2
f 207/2/2 208/2/2 209/2/2
f 209/2/2 208/2/2 210/2/2
f 211/2/2 212/2/2 213/2/2
f 213/2/2 212/2/2 214/2/2
f 215/2/2 216/2/2 219/2/2
f 219/2/2 216/2/2 220/2/2
f 217/2/2 218/2/2 221/2/2
f 221/2/2 218/2/2 222/2/2
f 219/1/2 220/1/2 223/1/2
f 220/2/2 216/2/2 224/2/2
f 223/1/2 220/1/2 224/1/2
f 224/2/2 216/2/2 225/2/2
f 217/2/2 221/2/2 226/2/2
f 221/1/2 222/1/2 227/1/2
f 226/2/2 221/2/2 227/2/2
f 227/1/2 222/1/2 228/1/2
f 232/2/3 230/2/3 229/2/3
f 232/1/3 231/1/3 230/1/3
f 233/1/3 231/1/3 232/1/3
f 234/2/3 232/2/3 229/2/3
f 234/2/3 233/2/3 232/2/3
f 235/2/3 233/2/3 234/2/3
f 238/1/3 237/1/3 236/1/3
f 239/1/3 237/1/3 238/1/3
f 242/2/3 241/2/3 240/2/3
f 243/2/3 241/2/3 242/2/3
f 244/2/3 242/2/3 240/2/3
f 245/1/3 243/1/3 242/1/3
f 245/2/3 242/2/3 244/2/3
f 246/1/3 243/1/3 245/1/3
f 249/2/3 248/2/3 247/2/3
f 250/2/3 248/2/3 249/2/3
f 251/2/3 248/2/3 250/2/3
f 252/2/3 249/2/3 247/2/3
f 252/1/3 250/1/3 249/1/3
f 253/1/3 250/1/3 252/1/3
f 254/2/3 252/2/3 247/2/3
f 256/2/3 254/2/3 247/2/3
f 256/1/3 255/1/3 254/1/3
f 257/1/3 255/1/3 256/1/3
f 259/2/3 257/2/3 256/2/3
f 259/2/3 258/2/3 257/2/3
f 259/2/3 256/2/3 247/2/3
f 260/2/3 258/2/3 259/2/3
f 263/2/3 262/2/3 261/2/3
f 264/2/3 262/2/3 263/2/3
f 267/2/3 266/2/3 265/2/3
f 268/2/3 266/2/3 267/2/3
f 271/2/3 270/2/3 269/2/3
f 272/2/3 270/2/3 271/2/3
f 275/2/3 274/2/3 273/2/3
f 276/2/3 274/2/3 275/2/3
f 279/2/3 278/2/3 277/2/3
f 280/2/3 278/2/3 279/2/3
f 283/2/3 282/2/3 281/2/3
f 284/2/3 282/2/3 283/2/3
f 287/2/3 286/2/3 285/2/3
f 288/2/3 286/2/3 287/2/3
f 291/2/3 290/2/3 289/2/3
f 292/2/3 290/2/3 291/2/3
f 295/2/3 294/2/3 293/2/3
f 296/2/3 294/2/3 295/2/3
f 299/2/3 298/2/3 297/2/3
f 300/2/3 298/2/3 299/2/3
f 303/2/3 302/2/3 301/2/3
f 304/2/3 302/2/3 303/2/3
f 307/2/3 306/2/3 305/2/3
f 308/2/3 306/2/3 307/2/3
f 311/2/3 310/2/3 309/2/3
f 312/2/3 310/2/3 311/2/3
f 315/2/3 314/2/3 313/2/3
f 316/2/3 314/2/3 315/2/3
f 319/2/3 318/2/3 317/2/3
f 320/2/3 318/2/3 319/2/3
f 323/2/3 322/2/3 321/2/3
f 324/2/3 322/2/3 323/2/3
f 327/2/3 326/2/3 325/2/3
f 328/2/3 326/2/3 327/2/3
f 331/2/3 330/2/3 329/2/3
f 332/2/3 330/2/3 331/2/3
f 335/2/3 334/2/3 333/2/3
f 336/2/3 334/2/3 335/2/3
f 339/2/3 338/2/3 337/2/3
f 340/2/3 338/2/3 339/2/3
f 343/2/3 342/2/3 341/2/3
f 344/2/3 342/2/3 343/2/3
f 347/2/3 346/2/3 345/2/3
f 348/2/3 346/2/3 347/2/3
f 351/2/3 350/2/3 349/2/3
f 352/2/3 350/2/3 351/2/3
f 355/2/3 354/2/3 353/2/3
f 356/2/3 354/2/3 355/2/3
f 357/2/4 358/2/4 359/2/4
f 359/2/4 358/2/4 360/2/4
f 361/2/4 362/2/4 363/2/4
f 363/2/4 362/2/4 364/2/4
f 365/2/4 366/2/4 367/2/4
f 367/2/4 366/2/4 368/2/4
f 369/2/4 370/2/4 371/2/4
f 371/2/4 370/2/4 372/2/4
f 373/2/4 374/2/4 375/2/4
f 375/2/4 374/2/4 376/2/4
f 377/2/4 378/2/4 379/2/4
f 379/2/4 378/2/4 380/2/4
f 381/2/4 382/2/4 383/2/4
f 383/2/4 382/2/4 384/2/4
f 385/2/4 386/2/4 387/2/4
f 387/2/4 386/2/4 388/2/4
f 389/2/4 390/2/4 391/2/4
f 391/2/4 390/2/4 392/2/4
f 393/2/4 394/2/4 395/2/4
f 395/2/4 394/2/4 396/2/4
f 397/2/4 398/2/4 399/2/4
f 399/2/4 398/2/4 400/2/4
f 401/2/4 402/2/4 403/2/4
f 403/2/4 402/2/4 404/2/4
f 405/2/4 406/2/4 407/2/4
f 407/2/4 406/2/4 408/2/4
f 409/2/4 410/2/4 411/2/4
f 411/2/4 410/2/4 412/2/4
f 413/2/4 414/2/4 415/2/4
f 415/2/4 414/2/4 416/2/4
f 417/2/4 418/2/4 419/2/4
f 419/2/4 418/2/4 420/2/4
f 421/2/4 422/2/4 423/2/4
f 423/2/4 422/2/4 424/2/4
f 425/2/4 426/2/4 427/2/4
f 427/2/4 426/2/4 428/2/4
f 429/2/4 430/2/4 431/2/4
f 431/2/4 430/2/4 432/2/4
f 433/2/4 434/2/4 435/2/4
f 435/2/4 434/2/4 436/2/4
f 437/2/4 438/2/4 439/2/4
f 439/2/4 438/2/4 440/2/4
f 440/2/4 438/2/4 441/2/4
f 437/2/4 439/2/4 442/2/4
f 439/1/4 440/1/4 442/1/4
f 442/1/4 440/1/4 443/1/4
f 437/2/4 442/2/4 445/2/4
f 443/2/4 444/2/4 445/2/4
f 442/2/4 443/2/4 445/2/4
f 445/2/4 444/2/4 446/2/4
f 447/2/4 448/2/4 450/2/4
f 448/1/4 449/1/4 450/1/4
f 450/1/4 449/1/4 451/1/4
f 447/2/4 450/2/4 452/2/4
f 450/2/4 451/2/4 452/2/4
f 452/2/4 451/2/4 453/2/4
f 454/2/4 455/2/4 456/2/4
f 456/2/4 455/2/4 457/2/4
f 454/2/4 456/2/4 458/2/4
f 456/1/4 457/1/4 459/1/4
f 458/2/4 456/2/4 459/2/4
f 459/1/4 457/1/4 460/1/4
f 465/2/5 462/2/5 461/2/5
f 466/2/5 464/2/5 463/2/5
f 467/2/5 465/2/5 461/2/5
f 467/2/5 466/2/5 465/2/5
f 468/2/5 466/2/5 467/2/5
f 469/2/5 464/2/5 466/2/5
f 469/2/5 466/2/5 468/2/5
f 470/2/5 464/2/5 469/2/5
f 472/2/5 469/2/5 468/2/5
f 473/2/5 469/2/5 472/2/5
f 475/2/5 472/2/5 471/2/5
f 475/2/5 474/2/5 473/2/5
f 475/2/5 473/2/5 472/2/5
f 476/2/5 474/2/5 475/2/5
f 477/2/5 475/2/5 471/2/5
f 478/2/5 475/2/5 477/2/5
f 479/2/5 474/2/5 476/2/5
f 480/2/5 474/2/5 479/2/5
f 483/1/5 482/1/5 481/1/5
f 484/1/5 482/1/5 483/1/5
f 485/1/6 486/1/6 488/1/6
f 488/1/6 486/1/6 489/1/6
f 487/1/6 488/1/6 492/1/6
f 489/1/6 490/1/6 492/1/6
f 488/1/6 489/1/6 492/1/6
f 492/1/6 490/1/6 493/1/6
f 491/1/6 492/1/6 496/1/6
f 493/1/6 494/1/6 496/1/6
f 492/1/6 493/1/6 496/1/6
f 496/1/6 494/1/6 497/1/6
f 495/1/6 496/1/6 500/1/6
f 497/1/6 498/1/6 500/1/6
f 496/1/6 497/1/6 500/1/6
f 500/1/6 498/1/6 501/1/6
f 501/1/6 498/1/6 502/1/6
f 502/1/6 498/1/6 503/1/6
f 503/1/6 498/1/6 504/1/6
f 504/1/6 498/1/6 505/1/6
f 499/1/6 500/1/6 508/1/6
f 500/1/6 501/1/6 508/1/6
f 508/1/6 501/1/6 509/1/6
f 509/1/6 501/1/6 510/1/6
f 504/1/6 505/1/6 511/1/6
f 505/1/6 506/1/6 511/1/6
f 511/1/6 506/1/6 512/1/6
f 512/1/6 506/1/6 513/1/6
f 508/1/6 509/1/6 516/1/6
f 507/1/6 508/1/6 516/1/6
f 516/1/6 509/1/6 517/1/6
f 517/1/6 509/1/6 518/1/6
f 513/1/6 514/1/6 519/1/6
f 512/1/6 513/1/6 519/1/6
f 519/1/6 514/1/6 520/1/6
f 520/1/6 514/1/6 521/1/6
f 516/1/6 517/1/6 524/1/6
f 515/1/6 516/1/6 524/1/6
f 524/1/6 517/1/6 525/1/6
f 525/1/6 517/1/6 526/1/6
f 521/1/6 522/1/6 527/1/6
f 520/1/6 521/1/6 527/1/6
f 527/1/6 522/1/6 528/1/6
f 528/1/6 522/1/6 529/1/6
f 524/1/6 525/1/6 532/1/6
f 523/1/6 524/1/6 532/1/6
f 532/1/6 525/1/6 533/1/6
f 533/1/6 525/1/6 534/1/6
f 529/1/6 530/1/6 535/1/6
f 528/1/6 529/1/6 535/1/6
f 535/1/6 530/1/6 536/1/6
f 536/1/6 530/1/6 537/1/6
f 532/1/6 533/1/6 540/1/6
f 531/1/6 532/1/6 540/1/6
f 540/1/6 533/1/6 541/1/6
f 541/1/6 533/1/6 542/1/6
f 537/1/6 538/1/6 543/1/6
f 536/1/6 537/1/6 543/1/6
f 543/1/6 538/1/6 544/1/6
f 544/1/6 538/1/6 545/1/6
f 540/1/6 541/1/6 548/1/6
f 539/1/6 540/1/6 548/1/6
f 548/1/6 541/1/6 549/1/6
f 549/1/6 541/1/6 550/1/6
f 545/1/6 546/1/6 551/1/6
f 544/1/6 545/1/6 551/1/6
f 551/1/6 546/1/6 552/1/6
f 552/1/6 546/1/6 553/1/6
f 548/1/6 549/1/6 555/1/6
f 547/1/6 548/1/6 555/1/6
f 555/1/6 549/1/6 556/1/6
f 553/1/6 554/1/6 557/1/6
f 552/1/6 553/1/6 557/1/6
f 557/1/6 554/1/6 558/1/6
f 547/1/6 555/1/6 559/1/6
f 559/1/6 555/1/6 560/1/6
f 558/1/6 554/1/6 561/1/6
f 561/1/6 554/1/6 562/1/6
f 547/1/6 559/1/6 563/1/6
f 563/1/6 559/1/6 564/1/6
f 562/1/6 554/1/6 565/1/6
f 565/1/6 554/1/6 566/1/6
f 547/1/6 563/1/6 567/1/6
f 567/1/6 563/1/6 568/1/6
f 566/1/6 554/1/6 569/1/6
f 569/1/6 554/1/6 570/1/6
f 502/1/6 503/1/6 571/1/6
f 571/1/6 503/1/6 572/1/6
f 573/1/6 574/1/6 579/1/6
f 574/2/6 575/2/6 580/2/6
f 579/1/6 574/1/6 580/1/6
f 580/2/6 575/2/6 581/2/6
f 576/2/6 577/2/6 584/2/6
f 577/1/6 578/1/6 585/1/6
f 584/2/6 577/2/6 585/2/6
f 585/1/6 578/1/6 586/1/6
f 573/1/6 579/1/6 587/1/6
f 581/2/6 582/2/6 588/2/6
f 587/1/6 579/1/6 588/1/6
f 579/2/6 580/2/6 588/2/6
f 580/2/6 581/2/6 588/2/6
f 588/2/6 582/2/6 589/2/6
f 589/2/6 582/2/6 590/2/6
f 583/2/6 584/2/6 591/2/6
f 585/2/6 586/2/6 591/2/6
f 584/2/6 585/2/6 591/2/6
f 591/2/6 586/2/6 592/2/6
f 586/1/6 578/1/6 593/1/6
f 592/2/6 586/2/6 593/2/6
f 593/1/6 578/1/6 594/1/6
f 588/2/6 589/2/6 595/2/6
f 587/2/6 588/2/6 595/2/6
f 595/2/6 589/2/6 596/2/6
f 593/2/6 594/2/6 597/2/6
f 592/2/6 593/2/6 597/2/6
f 597/2/6 594/2/6 598/2/6
f 587/2/6 595/2/6 599/2/6
f 599/2/6 595/2/6 600/2/6
f 598/2/6 594/2/6 605/2/6
f 605/2/6 594/2/6 606/2/6
f 573/1/6 587/1/6 607/1/6
f 587/2/6 599/2/6 608/2/6
f 607/1/6 587/1/6 608/1/6
f 608/2/6 599/2/6 609/2/6
f 609/2/6 599/2/6 610/2/6
f 601/2/6 602/2/6 612/2/6
f 603/2/6 604/2/6 613/2/6
f 606/2/6 594/2/6 615/2/6
f 615/2/6 594/2/6 616/2/6
f 594/1/6 578/1/6 617/1/6
f 616/2/6 594/2/6 617/2/6
f 617/1/6 578/1/6 618/1/6
f 607/2/6 608/2/6 619/2/6
f 608/2/6 609/2/6 619/2/6
f 619/2/6 609/2/6 620/2/6
f 611/2/6 612/2/6 622/2/6
f 613/2/6 614/2/6 623/2/6
f 617/2/6 618/2/6 625/2/6
f 616/2/6 617/2/6 625/2/6
f 625/2/6 618/2/6 626/2/6
f 607/2/6 619/2/6 627/2/6
f 627/2/6 619/2/6 628/2/6
f 621/2/6 622/2/6 630/2/6
f 623/2/6 624/2/6 631/2/6
f 626/2/6 618/2/6 633/2/6
f 633/2/6 618/2/6 634/2/6
f 607/2/6 627/2/6 635/2/6
f 635/2/6 627/2/6 636/2/6
f 636/2/6 627/2/6 637/2/6
f 637/2/6 627/2/6 638/2/6
f 629/2/6 630/2/6 640/2/6
f 631/2/6 632/2/6 641/2/6
f 634/2/6 618/2/6 643/2/6
f 643/2/6 618/2/6 644/2/6
f 644/2/6 618/2/6 645/2/6
f 645/2/6 618/2/6 646/2/6
f 636/2/6 637/2/6 647/2/6
f 647/2/6 637/2/6 648/2/6
f 639/2/6 640/2/6 650/2/6
f 641/2/6 642/2/6 651/2/6
f 644/2/6 645/2/6 653/2/6
f 653/2/6 645/2/6 654/2/6
f 636/2/6 647/2/6 655/2/6
f 655/2/6 647/2/6 656/2/6
f 649/2/6 650/2/6 658/2/6
f 651/2/6 652/2/6 659/2/6
f 654/2/6 645/2/6 661/2/6
f 661/2/6 645/2/6 662/2/6
f 657/2/6 658/2/6 664/2/6
f 659/2/6 660/2/6 665/2/6
f 663/2/6 664/2/6 668/2/6
f 665/2/6 666/2/6 669/2/6
f 667/2/6 668/2/6 672/2/6
f 669/2/6 670/2/6 673/2/6
f 636/2/6 655/2/6 675/2/6
f 671/2/6 672/2/6 676/2/6
f 673/2/6 674/2/6 677/2/6
f 662/2/6 645/2/6 678/2/6
f 636/2/6 675/2/6 680/2/6
f 675/2/6 676/2/6 680/2/6
f 677/2/6 678/2/6 681/2/6
f 678/2/6 645/2/6 681/2/6
f 679/2/6 680/2/6 683/2/6
f 680/2/6 676/2/6 684/2/6
f 683/2/6 680/2/6 684/2/6
f 681/2/6 682/2/6 685/2/6
f 677/2/6 681/2/6 685/2/6
f 685/2/6 682/2/6 686/2/6
f 684/2/6 676/2/6 687/2/6
f 683/1/6 684/1/6 687/1/6
f 687/2/6 676/2/6 688/2/6
f 677/2/6 685/2/6 689/2/6
f 685/1/6 686/1/6 690/1/6
f 689/2/6 685/2/6 690/2/6
f 688/2/6 676/2/6 691/2/6
f 687/1/6 688/1/6 691/1/6
f 691/2/6 676/2/6 692/2/6
f 676/2/6 672/2/6 693/2/6
f 692/2/6 676/2/6 693/2/6
f 612/2/6 602/2/6 694/2/6
f 693/2/6 672/2/6 694/2/6
f 622/2/6 612/2/6 694/2/6
f 630/2/6 622/2/6 694/2/6
f 640/2/6 630/2/6 694/2/6
f 650/2/6 640/2/6 694/2/6
f 658/2/6 650/2/6 694/2/6
f 664/2/6 658/2/6 694/2/6
f 668/2/6 664/2/6 694/2/6
f 672/2/6 668/2/6 694/2/6
f 673/2/6 677/2/6 695/2/6
f 613/2/6 623/2/6 695/2/6
f 603/2/6 613/2/6 695/2/6
f 669/2/6 673/2/6 695/2/6
f 623/2/6 631/2/6 695/2/6
f 631/2/6 641/2/6 695/2/6
f 665/2/6 669/2/6 695/2/6
f 641/2/6 651/2/6 695/2/6
f 677/2/6 689/2/6 695/2/6
f 659/2/6 665/2/6 695/2/6
f 651/2/6 659/2/6 695/2/6
f 695/2/6 689/2/6 696/2/6
f 696/2/6 689/2/6 697/2/6
f 689/1/6 690/1/6 698/1/6
f 697/2/6 689/2/6 698/2/6
f 691/1/6 692/1/6 699/1/6
f 687/1/6 691/1/6 699/1/6
f 683/1/6 687/1/6 699/1/6
f 692/2/6 693/2/6 700/2/6
f 699/1/6 692/1/6 700/1/6
f 700/2/6 693/2/6 701/2/6
f 696/2/6 697/2/6 702/2/6
f 697/1/6 698/1/6 703/1/6
f 702/2/6 697/2/6 703/2/6
f 698/1/6 690/1/6 704/1/6
f 703/1/6 698/1/6 704/1/6
f 690/1/6 686/1/6 704/1/6
